<svg xmlns="http://www.w3.org/2000/svg" viewBox="0 0 24.02 18.49"><defs><style>.a,.b{fill:none;stroke-linecap:round;stroke-linejoin:round;}.a{stroke:#ffbd44;fill-rule:evenodd;}.b{stroke:#3498db;}</style></defs><title>Asset 1</title><path class="a" d="M4.6,9.19a7.5,7.5,0,1,1,14.81,0"/><path class="b" d="M.5,16.37A3.66,3.66,0,0,0,3.13,18c1.57,0,2.59-2.23,3.65-2.23S8.77,18,10.46,18"/><path class="b" d="M2,12.95c3.55,0,4.13-2.55,5.15-2.55s1.89,2.55,4.38,2.55S15,10.4,16,10.4s1.7,2.55,3.87,2.55a2.9,2.9,0,0,0,2.28-.89"/><path class="b" d="M13.36,16.57a2.56,2.56,0,0,0,1.9,1c1.93,0,2.64-2.47,3.49-2.47s1.32,2.47,3,2.47a2.11,2.11,0,0,0,1.77-.87"/></svg>